# xmcd
#
# Track frame offsets: 
#        180
#        29138
#        57439
#        89509
#        114405
#
# Disc length: 1936 seconds
#
# Revision: 1
# Processed by: cddbd v1.5.2PL0 Copyright (c) Steve Scherf et al.
# Submitted via: ExactAudioCopy v1.0b1
#
DISCID=42078e05
DTITLE=Groundhogs - Live at Leeds
DYEAR=1971
DGENRE=Blues Rock
TTITLE0=Cherry Red
TTITLE1=Garden
TTITLE2=Split (part 1)
TTITLE3=Groundhogs Blues
TTITLE4=Eccentric Man
EXTD=
EXTT0=
EXTT1=
EXTT2=
EXTT3=
EXTT4=
PLAYORDER=
